HIERARCHY
ROOT joint_Root
{
	OFFSET 0.0 0.0 0.0
	CHANNELS 6 Xposition Yposition Zposition Zrotation Xrotation Yrotation 
	JOINT Hips
	{
		OFFSET -0.726466 93.3139 -2.00062
		CHANNELS 6 Xposition Yposition Zposition Zrotation Xrotation Yrotation 
		JOINT Spine
		{
			OFFSET 15.7357 0.0 0.0
			CHANNELS 6 Xposition Yposition Zposition Zrotation Xrotation Yrotation 
			JOINT Chest
			{
				OFFSET 8.98455 -0.406207 0.0
				CHANNELS 6 Xposition Yposition Zposition Zrotation Xrotation Yrotation 
				JOINT Neck
				{
					OFFSET 16.3773 0.0 0.0
					CHANNELS 6 Xposition Yposition Zposition Zrotation Xrotation Yrotation 
					JOINT Head
					{
						OFFSET 6.45672 0.0 0.0
						CHANNELS 6 Xposition Yposition Zposition Zrotation Xrotation Yrotation 
						End Site
						{
							OFFSET 0.0 0.0 0.0
						}
					}
				}
				JOINT Shoulder_L
				{
					OFFSET 12.9942 -0.242716 4.98039
					CHANNELS 6 Xposition Yposition Zposition Zrotation Xrotation Yrotation 
					JOINT UpperArm_L
					{
						OFFSET 5.34809 0.0 0.0
						CHANNELS 6 Xposition Yposition Zposition Zrotation Xrotation Yrotation 
						JOINT LowerArm_L
						{
							OFFSET 24.3286 1.87007e-05 0.0
							CHANNELS 6 Xposition Yposition Zposition Zrotation Xrotation Yrotation 
							JOINT Hand_L
							{
								OFFSET 22.2916 0.0 0.0
								CHANNELS 6 Xposition Yposition Zposition Zrotation Xrotation Yrotation 
								End Site
								{
									OFFSET 0.0 0.0 0.0
								}
							}
						}
					}
				}
				JOINT Shoulder_R
				{
					OFFSET 12.9945 -0.242716 -4.98039
					CHANNELS 6 Xposition Yposition Zposition Zrotation Xrotation Yrotation 
					JOINT UpperArm_R
					{
						OFFSET -5.34813 0.0 0.0
						CHANNELS 6 Xposition Yposition Zposition Zrotation Xrotation Yrotation 
						JOINT LowerArm_R
						{
							OFFSET -24.3289 0.000322201 0.0
							CHANNELS 6 Xposition Yposition Zposition Zrotation Xrotation Yrotation 
							JOINT Hand_R
							{
								OFFSET -22.2915 -0.000108084 0.0
								CHANNELS 6 Xposition Yposition Zposition Zrotation Xrotation Yrotation 
								End Site
								{
									OFFSET 0.0 0.0 0.0
								}
							}
						}
					}
				}
			}
		}
		JOINT UpperLeg_L
		{
			OFFSET -2.19248 -6.46944 0.0
			CHANNELS 6 Xposition Yposition Zposition Zrotation Xrotation Yrotation 
			JOINT LowerLeg_L
			{
				OFFSET 39.0811 0.0 -1.23785e-05
				CHANNELS 6 Xposition Yposition Zposition Zrotation Xrotation Yrotation 
				JOINT Foot_L
				{
					OFFSET 40.9854 0.0 -1.26872e-05
					CHANNELS 6 Xposition Yposition Zposition Zrotation Xrotation Yrotation 
					JOINT Toes_L
					{
						OFFSET 11.7543 0.0 0.0
						CHANNELS 6 Xposition Yposition Zposition Zrotation Xrotation Yrotation 
						End Site
						{
							OFFSET 0.0 0.0 0.0
						}
					}
				}
			}
		}
		JOINT UpperLeg_R
		{
			OFFSET -2.19251 6.46944 0.0
			CHANNELS 6 Xposition Yposition Zposition Zrotation Xrotation Yrotation 
			JOINT LowerLeg_R
			{
				OFFSET -39.0811 -0.00228153 -0.0401928
				CHANNELS 6 Xposition Yposition Zposition Zrotation Xrotation Yrotation 
				JOINT Foot_R
				{
					OFFSET -40.9854 0.0 0.0
					CHANNELS 6 Xposition Yposition Zposition Zrotation Xrotation Yrotation 
					JOINT Toes_R
					{
						OFFSET -11.7543 0.0 0.0
						CHANNELS 6 Xposition Yposition Zposition Zrotation Xrotation Yrotation 
						End Site
						{
							OFFSET 0.0 0.0 0.0
						}
					}
				}
			}
		}
	}
}
MOTION
Frames:	4
Frame Time:	0.0333333
0.000000 0.000000 0.000000 0.000000 0.000000 -0.000000 80.863900 88.137300 187.464000 -73.486900 65.876500 168.997000 15.735700 0.000005 -0.000001 107.386000 81.117200 -106.073000 8.984550 -0.406207 -0.000000 9.157210 5.295450 2.199420 16.377300 -0.000001 -0.000001 7.605440 10.493800 0.396019 6.456720 -0.000001 -0.000000 1.088020 15.308800 -2.038600 12.994200 -0.242716 4.980390 -88.781600 -2.709580 -65.776500 5.348090 -0.000007 -0.000001 -74.391900 27.629200 2.771670 24.328600 0.000019 0.000005 4.414440 8.255760 -28.263500 22.291600 -0.000001 0.000005 1.942940 5.525180 -7.585160 12.994500 -0.242716 -4.980390 89.103700 2.529390 -70.480300 -5.348130 -0.000001 -0.000004 -46.065100 20.173000 -45.237400 -24.328900 0.000322 -0.000009 5.219170 5.465300 -43.809400 -22.291500 -0.000108 -0.000004 3.650830 5.531380 -7.856010 -2.192480 -6.469440 -0.000000 174.073000 -27.169400 -27.046600 39.081100 -0.000007 -0.000012 -0.022938 0.156175 8.355080 40.985400 -0.000006 -0.000013 12.147100 -14.834800 -54.162400 11.754300 -0.000000 0.000003 -0.006451 -0.074884 -19.624800 -2.192510 6.469440 -0.000001 174.138000 21.147000 -172.774000 -39.081100 -0.002282 -0.040193 -0.003436 0.011946 29.430300 -40.985400 0.000008 0.000006 -5.938480 -3.312180 -72.537800 -11.754300 -0.000006 -0.000006 -2.235350 -2.574710 -20.711800
0.000000 0.000000 0.000000 0.000000 0.000000 -0.000000 84.079100 87.468100 184.983000 -74.034200 66.244900 169.345000 15.735700 0.000005 -0.000001 108.077000 81.263500 -107.259000 8.984550 -0.406207 -0.000000 8.835310 5.401890 1.219430 16.377300 -0.000001 -0.000001 7.909100 10.820900 0.529356 6.456720 -0.000001 -0.000000 0.594575 15.693200 -1.828620 12.994200 -0.242716 4.980390 -89.054500 -2.108010 -65.836600 5.348090 -0.000007 -0.000001 -73.749000 28.070800 2.280060 24.328600 0.000019 0.000005 4.819530 8.975930 -28.387200 22.291600 -0.000001 0.000005 1.865670 5.525640 -7.604530 12.994500 -0.242716 -4.980390 88.837600 3.336360 -70.779000 -5.348130 -0.000001 -0.000004 -45.973200 21.607700 -43.985800 -24.328900 0.000322 -0.000009 5.278510 5.517220 -43.864900 -22.291500 -0.000108 -0.000004 3.771160 5.532340 -7.898410 -2.192480 -6.469440 -0.000000 173.260000 -27.131200 -30.403700 39.081100 -0.000007 -0.000012 0.087987 -0.330579 14.904500 40.985400 -0.000006 -0.000013 18.012300 -15.856100 -47.474800 11.754300 -0.000000 0.000003 -0.008363 -0.090979 -20.281900 -2.192510 6.469440 -0.000001 172.171000 19.628000 -171.714000 -39.081100 -0.002282 -0.040193 -0.103015 0.173924 31.436100 -40.985400 0.000008 0.000006 -7.476780 -2.808820 -69.655000 -11.754300 -0.000006 -0.000006 -4.119470 -4.401550 -25.597500
0.000000 0.000000 0.000000 0.000000 0.000000 -0.000000 87.446900 86.982700 181.961000 -75.587300 66.905400 170.464000 15.735700 0.000005 -0.000001 108.031000 81.589700 -107.871000 8.984550 -0.406207 -0.000000 8.246380 5.183710 -0.053636 16.377300 -0.000001 -0.000001 8.171920 11.391500 0.581342 6.456720 -0.000001 -0.000000 0.382262 16.240900 -1.703550 12.994200 -0.242716 4.980390 -89.427900 -1.269440 -65.734200 5.348090 -0.000007 -0.000001 -73.017000 27.990400 2.043190 24.328600 0.000019 0.000005 4.888180 9.056130 -28.516600 22.291600 -0.000001 0.000005 1.894840 5.531850 -7.876180 12.994500 -0.242716 -4.980390 88.491600 4.409700 -71.094400 -5.348130 -0.000001 -0.000004 -45.622700 24.151600 -42.191400 -24.328900 0.000322 -0.000009 5.368600 5.687320 -43.486100 -22.291500 -0.000108 -0.000004 3.590670 5.537790 -8.142210 -2.192480 -6.469440 -0.000000 174.188000 -25.314500 -32.773000 39.081100 -0.000007 -0.000012 0.145887 -0.335752 23.485500 40.985400 -0.000006 -0.000013 15.357500 -17.536200 -42.642300 11.754300 -0.000000 0.000003 -0.008127 -0.089076 -20.204200 -2.192510 6.469440 -0.000001 169.636000 17.615100 -171.403000 -39.081100 -0.002282 -0.040193 -0.077415 0.116555 34.700000 -40.985400 0.000008 0.000006 -8.654880 -2.381150 -66.970200 -11.754300 -0.000006 -0.000006 -0.033348 -0.232419 -26.103300
0.000000 0.000000 0.000000 0.000000 0.000000 -0.000000 90.945400 86.675700 178.646000 -76.820400 66.540400 172.370000 15.735700 0.000005 -0.000001 106.059000 81.681900 -106.381000 8.984550 -0.406207 -0.000000 8.253640 4.579840 -0.973975 16.377300 -0.000001 -0.000001 7.816800 11.692700 0.202660 6.456720 -0.000001 -0.000000 0.470741 16.686500 -0.959198 12.994200 -0.242716 4.980390 -89.466300 -1.178970 -65.638100 5.348090 -0.000007 -0.000001 -72.706500 28.931700 0.857309 24.328600 0.000019 0.000005 4.471340 8.600580 -27.605800 22.291600 -0.000001 0.000005 2.312170 5.535240 -8.027300 12.994500 -0.242716 -4.980390 88.307700 4.931980 -71.034500 -5.348130 -0.000001 -0.000004 -47.168600 27.108200 -38.725000 -24.328900 0.000322 -0.000009 6.126460 6.579070 -43.137800 -22.291500 -0.000108 -0.000004 3.485130 5.539580 -8.223170 -2.192480 -6.469440 -0.000000 175.498000 -22.115500 -33.322700 39.081100 -0.000007 -0.000012 0.013489 -0.020078 33.893600 40.985400 -0.000006 -0.000013 11.552100 -20.050600 -50.160700 11.754300 -0.000000 0.000003 -0.007519 -0.084066 -19.999600 -2.192510 6.469440 -0.000001 167.896000 15.184500 -171.314000 -39.081100 -0.002282 -0.040193 0.007831 -0.005536 39.423600 -40.985400 0.000008 0.000006 -7.859470 -3.947830 -61.198800 -11.754300 -0.000006 -0.000006 -0.083324 -0.401139 -33.241600
